<mxfile host="app.diagrams.net" modified="2023-12-02T02:20:05.418Z" agent="Mozilla/5.0 (Windows NT 10.0; Win64; x64) AppleWebKit/537.36 (KHTML, like Gecko) Chrome/119.0.0.0 Safari/537.36" etag="AgWKUAMDkWozzkLngCsz" version="22.1.5" type="github">
  <diagram id="C5RBs43oDa-KdzZeNtuy" name="Page-1">
    <mxGraphModel dx="880" dy="1655" grid="1" gridSize="10" guides="1" tooltips="1" connect="1" arrows="1" fold="1" page="1" pageScale="1" pageWidth="827" pageHeight="1169" background="none" math="0" shadow="0">
      <root>
        <mxCell id="WIyWlLk6GJQsqaUBKTNV-0" />
        <mxCell id="WIyWlLk6GJQsqaUBKTNV-1" parent="WIyWlLk6GJQsqaUBKTNV-0" />
        <mxCell id="oTPYxhKpV-t5V6AZrwu8-19" value="Pool" style="swimlane;childLayout=stackLayout;resizeParent=1;resizeParentMax=0;startSize=20;html=1;" vertex="1" parent="WIyWlLk6GJQsqaUBKTNV-1">
          <mxGeometry x="20.000000000000455" y="-40" width="480" height="480" as="geometry" />
        </mxCell>
        <mxCell id="oTPYxhKpV-t5V6AZrwu8-20" value="Lane 1" style="swimlane;startSize=20;html=1;" vertex="1" parent="oTPYxhKpV-t5V6AZrwu8-19">
          <mxGeometry y="20" width="160" height="460" as="geometry" />
        </mxCell>
        <mxCell id="oTPYxhKpV-t5V6AZrwu8-23" value="" style="rounded=0;whiteSpace=wrap;html=1;strokeWidth=0;perimeterSpacing=0;shadow=0;glass=0;imageWidth=20;" vertex="1" parent="oTPYxhKpV-t5V6AZrwu8-20">
          <mxGeometry x="20" y="40" width="120" height="60" as="geometry" />
        </mxCell>
        <mxCell id="oTPYxhKpV-t5V6AZrwu8-35" value="Lane 1" style="swimlane;startSize=20;html=1;" vertex="1" parent="oTPYxhKpV-t5V6AZrwu8-19">
          <mxGeometry x="160" y="20" width="160" height="460" as="geometry" />
        </mxCell>
        <mxCell id="oTPYxhKpV-t5V6AZrwu8-40" value="" style="endArrow=block;html=1;rounded=0;endSize=6;endFill=1;strokeWidth=2;" edge="1" parent="oTPYxhKpV-t5V6AZrwu8-35">
          <mxGeometry width="50" height="50" relative="1" as="geometry">
            <mxPoint x="-15.000000000000455" y="70" as="sourcePoint" />
            <mxPoint x="174.99999999999955" y="71" as="targetPoint" />
          </mxGeometry>
        </mxCell>
        <mxCell id="oTPYxhKpV-t5V6AZrwu8-37" value="Lane 1" style="swimlane;startSize=20;html=1;" vertex="1" parent="oTPYxhKpV-t5V6AZrwu8-19">
          <mxGeometry x="320" y="20" width="160" height="460" as="geometry" />
        </mxCell>
        <mxCell id="oTPYxhKpV-t5V6AZrwu8-39" value="" style="shape=document;whiteSpace=wrap;html=1;boundedLbl=1;" vertex="1" parent="oTPYxhKpV-t5V6AZrwu8-37">
          <mxGeometry x="20" y="40" width="120" height="90" as="geometry" />
        </mxCell>
        <mxCell id="oTPYxhKpV-t5V6AZrwu8-52" value="" style="curved=1;endArrow=classic;html=1;rounded=0;labelBackgroundColor=default;strokeColor=default;strokeWidth=2;align=center;verticalAlign=middle;fontFamily=Helvetica;fontSize=11;fontColor=default;shape=connector;jumpStyle=none;" edge="1" parent="WIyWlLk6GJQsqaUBKTNV-1">
          <mxGeometry width="50" height="50" relative="1" as="geometry">
            <mxPoint x="611" y="120" as="sourcePoint" />
            <mxPoint x="690" y="250" as="targetPoint" />
            <Array as="points">
              <mxPoint x="671" y="120" />
              <mxPoint x="681" y="120" />
              <mxPoint x="691" y="130" />
            </Array>
          </mxGeometry>
        </mxCell>
      </root>
    </mxGraphModel>
  </diagram>
</mxfile>
